<?xml version="1.0" encoding="utf-8"?>
<!-- Generator: Adobe Illustrator 19.0.0, SVG Export Plug-In . SVG Version: 6.00 Build 0)  -->
<svg version="1.1" id="Layer_1" xmlns="http://www.w3.org/2000/svg" xmlns:xlink="http://www.w3.org/1999/xlink" x="0px" y="0px"
	 viewBox="0 0 595.3 841.9" style="enable-background:new 0 0 595.3 841.9;" xml:space="preserve">
<style type="text/css">
	.st0{fill:none;}
	.st1{opacity:0.2;fill:#6FCCDD;}
	.st2{opacity:0.2;fill:#755EA8;}
	.st3{opacity:0.3;fill:#6FCCDD;}
	.st4{opacity:0.2;fill:#E8565E;}
</style>
<g id="XMLID_5_">
	<path id="XMLID_6_" class="st0" d="M331.3,730.4c21.8-66,67.2-116.1,119.5-139.7c-3.2-16.6-4.9-34-4.9-52
		c0-112.9,66.9-204.5,149.3-204.5V0H0v79.6C52.1,137,87.9,256.1,87.9,393.8S52.1,650.6,0,708v133.9h320.5
		C315.6,806.6,318.8,768.3,331.3,730.4z"/>
	<path id="XMLID_7_" class="st1" d="M450.8,590.7c-52.4,23.6-97.7,73.7-119.5,139.7c-12.5,37.9-15.7,76.3-10.8,111.5h274.7v-98.8
		C525.9,743.1,467.6,678.4,450.8,590.7z"/>
	<path id="XMLID_8_" class="st2" d="M446,538.7c0,18,1.7,35.4,4.9,52c36.3-16.4,75.9-20.1,113.4-7.7c11,3.6,21.4,8.5,31,14.5V334.2
		C512.8,334.2,446,425.8,446,538.7z"/>
	<path id="XMLID_10_" class="st3" d="M450.8,590.7c16.8,87.7,75.1,152.5,144.4,152.5V597.5c-9.6-6-20-10.8-31-14.5
		C526.7,570.6,487.1,574.3,450.8,590.7z"/>
	<path id="XMLID_9_" class="st2" d="M450.8,590.7c16.8,87.7,75.1,152.5,144.4,152.5V597.5c-9.6-6-20-10.8-31-14.5
		C526.7,570.6,487.1,574.3,450.8,590.7z"/>
	<path id="XMLID_11_" class="st4" d="M0,156.3v628.4c52.1-57.4,87.9-176.5,87.9-314.2S52.1,213.7,0,156.3z"/>
</g>
</svg>
