<?xml version="1.0" encoding="utf-8"?>
<!-- Generator: Adobe Illustrator 19.0.0, SVG Export Plug-In . SVG Version: 6.00 Build 0)  -->
<svg version="1.1" id="Layer_1" xmlns="http://www.w3.org/2000/svg" xmlns:xlink="http://www.w3.org/1999/xlink" x="0px" y="0px"
	 viewBox="0 0 2334.4 2095.2" style="enable-background:new 0 0 2334.4 2095.2;" xml:space="preserve">
<g>
	<path d="M1300.9,1024.2c13.9-2.1,28-4.1,42-6.5c41.2-6.9,81.3-18,119-36.4c72.4-35.4,118.9-92.7,141.9-169.5
		c15.7-52.3,20.7-106,17.5-160.2c-3.6-61.5-25.9-115.9-66.3-162.7c-3-3.5-5.9-6.3-3.9-12.1c16.6-48.2,16.1-96.8,3.1-145.6
		c-3.3-12.5-7.6-24.7-11.4-36.7c-17.9-4.4-34.3-1.3-50.6,2.2c-21.6,4.6-42.1,12.6-62,22c-26.6,12.5-52,27.1-76.3,43.6
		c-5.3,3.6-9.9,4-15.8,2.5c-68.5-18.5-138.3-24.5-209-20.7c-43.3,2.3-86.1,9-128,20.4c-7.2,1.9-12.5,1-18.6-3.1
		c-32.5-21.7-66.5-40.6-103.3-54.2c-20.4-7.6-41.2-13.5-63.1-14.3c-6.3-0.2-12.6,0-18.8,0c-1.6,3-2.8,5-3.6,7.1
		c-12.1,31.4-18.8,63.9-19.3,97.5c-0.4,26.5,2.9,52.6,11.8,77.6c2,5.5,1.2,9.1-2.6,13.4c-36.7,42.2-58.1,91.2-65.4,146.5
		c-3.8,28.9-2.7,57.9-0.4,86.8c2.8,35,9,69.3,20.5,102.6c26.4,76.8,77.2,131,151.6,163.4c41.3,17.9,84.7,27.7,129.1,33.8
		c5.9,0.8,11.7,1.7,18,2.6c-0.5,1.3-0.5,2.4-1.1,3c-22.8,22.8-34.7,51-40,82.2c-1.3,7.5-4.2,11.6-11.4,14.2
		c-20.5,7.5-41.3,13-63.1,14.1c-49.3,2.4-88.9-16.6-119.3-55c-5.6-7-10.4-14.7-15.3-22.2c-13-20-28.4-37.9-48-51.7
		c-23.2-16.5-48.6-24.5-77.3-19.3c-6.3,1.2-13.1,2.2-15.5,9.1c-2.4,6.9,2.1,12.4,6.7,16.7c6,5.7,12.3,11.5,19.4,15.6
		c15.5,8.7,27.7,20.7,38.2,34.7c16.5,21.9,31.4,44.9,41.2,70.5c16.4,42.8,47.2,69.1,90.5,81.8c25.8,7.6,52.3,10.3,79.1,8.4
		c20.6-1.4,41.1-4.1,61.6-6.2c2-0.2,4-0.3,6.9-0.6c0.2,3,0.6,5.9,0.7,8.8c0.4,39,0.9,78,1.2,117c0,4.6-0.2,9.4-1.2,13.9
		c-3.1,15-13.7,24.6-28.8,26.4c-8.3,1-16.5,0.4-24.6-2.4c-131.1-45.7-240.3-122.6-326.8-231.2c-68.6-86.1-114.3-183.3-137.6-290.9
		c-9.5-43.7-14.4-88-15.5-132.8c-2.6-107,17.7-209.3,61.1-307c33.8-75.9,79.8-143.7,137.5-203.6c51.7-53.7,110.4-98.3,176.1-133.5
		c69.6-37.2,143.4-62.3,221.4-74.8c44.2-7,88.7-10.3,133.4-9c95.4,2.8,186.9,23.1,273.7,62.9c142.4,65.3,251.9,166.5,328.7,303
		c39.9,70.9,65.9,146.8,79.2,227.1c9.9,59.2,12.3,118.6,7.2,178.3c-7.3,83.7-28.3,163.9-64.3,240c-65.5,138.3-165.1,245-298.1,320.4
		c-36,20.4-73.7,37.3-112.9,50.5c-6.5,2.2-13.6,3.2-20.5,3.3c-20.5,0.1-33.9-13.2-34.3-33.6c-0.3-16.3-0.1-32.7,0-49
		c0.1-53.3,0.9-106.7,0.2-160c-0.4-29.6-6.3-58.4-21-84.5C1317.9,1047,1309.2,1036.3,1300.9,1024.2z"/>
	<path d="M329.7,1966.6c0-39.8,0-78.7,0-118.7c-3.9-0.2-7.4-0.5-10.9-0.5c-20,0-40,0-60,0c-11.6,0-14.6-3-14.7-14.9
		c-0.1-28.3-0.1-56.6,0-85c0-12.3,2.3-14.6,14.6-14.6c62,0,124,0,185.9,0c12.1,0,13.9,1.8,13.9,14c0,97-0.1,193.9,0.2,290.9
		c0,7.4-2.8,11.5-8.9,15c-31,17.7-64.1,29.4-99.1,35.7c-57.8,10.4-115.5,8.8-172.4-5.9c-78.4-20.2-129.8-70.1-156.3-146.3
		c-11.6-33.2-17.3-67.6-20.1-102.6c-3.2-40.6-2.3-81.2,2.1-121.7c4.7-43,14-84.8,33-123.9c30.8-63.5,81-102.6,149.7-118.3
		c37-8.5,74.6-9,112.3-7.3c30.7,1.4,61.2,4.6,90.8,13c11.8,3.4,23.4,7.7,34.6,12.7c10.8,4.8,11.5,7.4,8.8,18.9
		c-6.5,27.9-13.1,55.7-19.6,83.6c-2.5,10.5-5.9,12.6-16.4,9.1c-45.7-15.3-92.6-18.5-140.1-14c-30.9,3-59,13.4-81.1,36.5
		c-15.5,16.2-25.4,35.7-32,57c-8.2,26.6-11.7,54-12.4,81.7c-1,35.4,0.2,70.6,8.3,105.3c4,17.3,9.7,33.9,18.6,49.4
		c17.8,31.3,44.6,49.9,80.3,54.9c27.9,3.9,55.8,2.3,83.6-2.1C324.5,1968.2,326.7,1967.4,329.7,1966.6z"/>
	<path d="M1331.8,1825.9c-57.8,0-114.1,0-171.6,0c-0.1,4.1-0.4,7.9-0.4,11.8c0,75.7,0,151.3,0,227c0,17-1.3,18.3-18,18.3
		c-31,0-62,0-93,0c-3,0-6,0.1-9-0.3c-4.9-0.6-7.9-3.5-8.3-8.5c-0.3-3-0.2-6-0.2-9c0-187.6,0-375.3,0-562.9
		c0-16.7,0.6-17.3,17.6-17.3c31.3,0,62.7,0,94,0c2.7,0,5.4-0.2,8,0.1c5.6,0.6,8.3,3.3,8.9,8.9c0.3,2.6,0.1,5.3,0.1,8
		c0,64.3,0,128.7,0,193c0,3.9,0,7.8,0,12.3c57.6,0,114.1,0,171.8,0c0.1-3.9,0.3-7.8,0.3-11.7c0-63.7-0.1-127.3-0.1-191
		c0-2.7-0.1-5.3,0-8c0.4-8.7,2.9-11.6,11.4-11.6c35.3-0.1,70.7-0.1,106,0c8.4,0,10.7,2.5,11.3,10.6c0.2,2.7,0.1,5.3,0.1,8
		c0,186.6,0,373.3,0,559.9c0,18.5-0.9,19.4-19,19.4c-30.7,0-61.3,0-92,0c-2.7,0-5.4,0.2-8-0.2c-6.8-0.8-9.3-3.5-9.8-10.3
		c-0.2-2.7-0.1-5.3-0.1-8c0-76.7,0-153.3,0-230C1331.8,1832,1331.8,1829.4,1331.8,1825.9z"/>
	<path d="M2075.3,1689.5c5.4-2.6,9.5-4.7,13.7-6.6c42.4-19.8,86.6-25.8,132.5-16.2c44.5,9.3,74.4,36.6,92.5,77.8
		c9.7,22.2,15.2,45.5,17.6,69.5c5,50.6,3.8,101.1-5.6,151.3c-4.1,21.7-10.6,42.6-21,62.2c-19.4,36.6-50.1,57.2-90.4,63.7
		c-43,6.9-85.2,3.3-125.5-13.9c-13.1-5.6-25-13.7-37.5-20.7c-1.9-1.1-3.7-2.3-6.4-4c-1.1,6.8-2,12.6-3.1,18.4
		c-1.9,9.8-4.2,12-13.9,12c-23,0.1-46,0.1-69,0c-10-0.1-12.8-3.2-13.1-13.3c-0.1-2,0-4,0-6c0-186.6,0-373.3,0-559.9
		c0-18.1,0.6-18.7,18.4-18.7c31,0,62,0,93,0c2.7,0,5.3-0.1,8,0.1c6.8,0.6,9.2,3.1,9.8,10.1c0.2,2.7,0.1,5.3,0.1,8c0,58,0,116,0,174
		C2075.3,1680.8,2075.3,1684.4,2075.3,1689.5z M2208.1,1877.9c-0.5,0-1-0.1-1.5-0.1c0-6.7,0.2-13.3,0-20c-0.6-19.1-3-37.9-10.8-55.5
		c-8.1-18.3-21.4-30.2-41.8-33.2c-27.6-4.1-52.7,3.6-77.1,15.5c-4,2-4.4,5.3-4.4,9.1c0.1,56.7,0.1,113.3,0,170c0,5,1.7,7.8,6.2,10.1
		c26.4,13.2,54.2,18.2,83.4,13.4c14.7-2.4,26.1-10.3,32.1-24.2c3.3-7.6,6.4-15.6,7.5-23.6C2204.5,1919,2206.1,1898.5,2208.1,1877.9z
		"/>
	<path d="M1797.3,2055.6c-3.3,1.7-5.9,2.9-8.5,4.3c-37.1,21.1-76.6,34-119.6,34.6c-25.7,0.4-51.3-1.5-76-9.7
		c-37.5-12.3-61-37.8-71.5-75.6c-5.1-18.4-7-37.3-7.1-56.3c-0.2-87-0.1-174-0.1-260.9c0-2.7-0.1-5.4,0.3-8c0.9-5.4,3.9-8,9.5-8.5
		c2-0.2,4-0.1,6-0.1c32.7,0,65.3,0,98,0c2,0,4-0.1,6,0.1c6.7,0.6,9.2,3.3,9.7,10.2c0.2,2.7,0,5.3,0,8c0,79-0.1,158,0.1,236.9
		c0,9.3,1,18.7,2.7,27.7c3.3,16.9,14,26.5,31.1,29.4c22.5,3.8,43.8-0.3,64.4-8.8c6.4-2.6,12.4-6.3,19.4-9.9c0-4,0-8,0-11.9
		c0-87.3,0-174.6,0-261.9c0-2.3,0-4.7,0-7c0.2-10.5,2.4-12.8,13.1-12.8c33.3-0.1,66.7-0.1,100,0c12.2,0,14.7,2.5,14.8,14.5
		c0.1,31.3,0.1,62.7,0.1,94c0,93.3,0,186.6,0,279.9c0,18-1.1,19-19.4,19.1c-18.7,0.1-37.3,0.3-56,0.3c-10.5,0-12.7-2-14.5-12.4
		C1799.1,2066.2,1798.3,2061.3,1797.3,2055.6z"/>
	<path d="M884.6,1782.2c0,5.1,0,8.7,0,12.3c0,48,0,95.9,0,143.9c0,2.3-0.1,4.7,0.1,7c1.6,25.7,14.6,39.8,40.3,42.2
		c11.2,1,22.6,0.6,33.8-0.1c16.6-1.1,19.8-0.5,19.4,18.1c-0.5,21.6-0.1,43.3-0.1,65c0,10.1-0.9,11-10.6,13.8
		c-38.2,10.9-76.8,12.4-115.6,3.8c-56.3-12.5-85-49.8-91.7-104.6c-1.5-11.9-1.9-23.9-1.9-35.9c-0.2-51-0.1-101.9-0.1-152.9
		c0-3.6,0-7.3,0-11.7c-3-0.3-5.6-0.9-8.1-0.9c-15-0.1-30,0-45,0c-11.6-0.1-13.7-2-13.7-13.2c-0.1-21-0.1-42,0-63
		c0-10.3,1.3-11.8,11.4-14.3c18-4.5,36.1-8.9,55.3-13.6c0-3.8,0-7.3,0-10.9c0-32.3,0-64.6,0-96.9c0-10.8,1-11.8,12.1-11.8
		c34.3-0.1,68.6-0.1,102.9,0c10.5,0,11.4,1,11.4,11.4c0.1,30.7,0,61.3,0,92c0,3.6,0,7.2,0,11.9c4.2,0.2,7.7,0.6,11.2,0.6
		c22,0.1,44,0,66,0c12.6,0,14.8,2.2,14.8,14.4c0.1,26.7,0.1,53.3,0,80c0,11.4-2,13.5-13.4,13.5c-22,0.1-44,0-66,0
		C893.6,1782.2,889.9,1782.2,884.6,1782.2z"/>
	<path d="M650.1,1878.6c0,61.3,0,122.6,0,183.8c0,3,0.2,6-0.1,9c-0.6,6.6-3.2,9.5-9.7,10.7c-3.2,0.6-6.6,0.7-9.9,0.7
		c-29,0.1-58,0-86.9,0c-0.3,0-0.7,0-1,0c-17.5-0.2-21-3.6-21-21.1c0-123.2,0-246.5,0-369.7c0-2.3-0.1-4.7,0.1-7
		c0.8-6.8,4.1-10.1,10.9-10.8c1.6-0.2,3.3-0.1,5-0.1c32.3,0,64.6,0,96.9,0c13.6,0,15.8,2.2,15.8,15.5
		C650.1,1752.7,650.1,1815.7,650.1,1878.6z"/>
	<path d="M586.7,1642.1c-39.5-0.1-71.1-32.4-70.9-72.6c0.2-39.9,32.4-72.1,71.8-71.7c38.9,0.3,70.4,32.6,70.4,72.2
		C658.1,1610,626.3,1642.2,586.7,1642.1z"/>
</g>
</svg>
