<?xml version="1.0" encoding="utf-8"?>
<!-- Generator: Adobe Illustrator 19.0.0, SVG Export Plug-In . SVG Version: 6.00 Build 0)  -->
<svg version="1.1" id="Layer_1" xmlns="http://www.w3.org/2000/svg" xmlns:xlink="http://www.w3.org/1999/xlink" x="0px" y="0px"
	 viewBox="0 0 215 221" style="enable-background:new 0 0 215 221;" xml:space="preserve">
<g>
	<path d="M151.2,176.2c-1.9-2-3.6-3.8-5.4-5.5c-6.3-6-13.5-10.8-21.8-13.5c-11.1-3.7-21.9-2.6-32.3,2.5c-7.9,3.8-14.6,9.4-20.8,15.6
		c-0.5,0.5-1,0.9-1.6,1.3c0,0.1,0.1,0.3,0.1,0.4c0.5,0.1,0.9,0.3,1.4,0.4c1.3,0.3,2,1.1,1.8,2.2c-0.1,1.1-1.1,1.7-2.4,1.6
		c-2.4-0.2-3.9-1.7-5-3.6c-1.2-2.2-1.7-4.6-1.9-7.1c-0.1-1.1,0.7-2,1.8-2.1c0.9-0.1,1.9,0.6,2.1,1.6c0.2,0.9,0.3,1.8,0.4,3
		c0.6-0.6,1.1-1.1,1.5-1.5c6.5-6.5,13.6-12.1,22-15.9c14.2-6.4,28.2-5.8,42,1.2c7.3,3.7,13.6,8.8,19.1,14.9c0.2,0.3,0.5,0.5,0.9,0.9
		c0.2-1.2,0.4-2.2,0.6-3.2c0.2-1.3,0.9-2,2.1-1.9c1.1,0.1,1.8,0.9,1.7,2.1c-0.2,2.8-0.8,5.5-2.4,7.8c-1.1,1.7-2.6,2.8-4.7,2.8
		c-1.3,0-2.2-0.7-2.2-1.9c0-1.1,0.7-1.9,2-2C150.5,176.3,150.7,176.3,151.2,176.2z"/>
	<path d="M25.7,89.6c4.1,0.8,8.2,1.8,12.4,2.5c10.5,1.7,20.7,1,30.5-3.4c5.5-2.5,10.3-5.9,14.8-9.9c1-0.9,2-1.8,3.2-2.8
		C76.8,98,47.3,105.5,25.7,89.6z"/>
	<path d="M128.5,76.2c1,0.8,1.9,1.7,2.9,2.5c5.2,4.6,10.8,8.6,17.4,11.1c6.8,2.6,13.9,3.5,21.2,3.1c6.5-0.4,12.8-1.6,19-3.4
		c0.1,0,0.2,0,0.4,0C173.1,102.3,141.6,102.8,128.5,76.2z"/>
	<path d="M180.7,60.6c-4.3,2.3-8.5,3.4-12.9,3.3c-6.5-0.1-12.4-2-17.1-6.7c-4-3.9-6.2-8.6-6.3-14.3c0-0.9,0.1-1.9,0.3-3.2
		c0.6,0.8,1,1.4,1.3,2c4.5,6.6,10.2,11.9,17.9,14.4c4.2,1.4,8.6,2.4,12.9,3.6C178,60,179.2,60.2,180.7,60.6z"/>
	<path d="M70.1,39.8c1.7,8.2-3.4,18-12.7,22c-7.5,3.2-15,2.8-22.4-0.7c-0.2-0.1-0.3-0.2-0.8-0.5c1.4-0.4,2.6-0.7,3.7-1
		c4.3-1.1,8.6-2.1,12.8-3.5c7.8-2.5,13.6-7.8,18.1-14.5C69.3,41.1,69.6,40.6,70.1,39.8z"/>
</g>
</svg>
