<?xml version="1.0" standalone="no"?>
<!DOCTYPE svg PUBLIC "-//W3C//DTD SVG 20010904//EN"
 "http://www.w3.org/TR/2001/REC-SVG-20010904/DTD/svg10.dtd">
<svg version="1.0" xmlns="http://www.w3.org/2000/svg"
 width="2048.000000pt" height="2048.000000pt" viewBox="0 0 2048.000000 2048.000000"
 preserveAspectRatio="xMidYMid meet">

<g transform="translate(0.000000,2048.000000) scale(0.100000,-0.100000)"
fill="#000000" stroke="none">
<path d="M2260 16295 l0 -1925 1925 0 1925 0 0 1925 0 1925 -1925 0 -1925 0 0
-1925z m3300 0 l0 -1375 -1375 0 -1375 0 0 1375 0 1375 1375 0 1375 0 0 -1375z"/>
<path d="M3360 16295 l0 -825 825 0 825 0 0 825 0 825 -825 0 -825 0 0 -825z"/>
<path d="M7210 17945 l0 -275 275 0 275 0 0 -275 0 -275 -550 0 -550 0 0 -275
0 -275 275 0 275 0 0 -275 0 -275 275 0 275 0 0 -275 0 -275 -275 0 -275 0 0
-275 0 -275 -275 0 -275 0 0 -550 0 -550 -1100 0 -1100 0 0 -825 0 -825 275 0
275 0 0 -275 0 -275 275 0 275 0 0 -275 0 -275 275 0 275 0 0 -275 0 -275
-550 0 -550 0 0 275 0 275 -275 0 -275 0 0 275 0 275 -275 0 -275 0 0 550 0
550 -275 0 -275 0 0 275 0 275 275 0 275 0 0 275 0 275 -825 0 -825 0 0 -275
0 -275 275 0 275 0 0 -275 0 -275 275 0 275 0 0 -825 0 -825 -275 0 -275 0 0
-275 0 -275 275 0 275 0 0 275 0 275 550 0 550 0 0 -275 0 -275 275 0 275 0 0
-550 0 -550 -275 0 -275 0 0 275 0 275 -1100 0 -1100 0 0 -275 0 -275 275 0
275 0 0 -550 0 -550 -275 0 -275 0 0 -275 0 -275 275 0 275 0 0 -275 0 -275
-275 0 -275 0 0 -275 0 -275 275 0 275 0 0 275 0 275 275 0 275 0 0 275 0 275
550 0 550 0 0 -275 0 -275 275 0 275 0 0 -275 0 -275 825 0 825 0 0 -1100 0
-1100 275 0 275 0 0 -275 0 -275 -275 0 -275 0 0 -825 0 -825 550 0 550 0 0
275 0 275 550 0 550 0 0 -275 0 -275 275 0 275 0 0 275 0 275 -275 0 -275 0 0
275 0 275 -550 0 -550 0 0 1100 0 1100 550 0 550 0 0 -275 0 -275 -275 0 -275
0 0 -550 0 -550 275 0 275 0 0 550 0 550 550 0 550 0 0 -550 0 -550 -275 0
-275 0 0 -275 0 -275 275 0 275 0 0 275 0 275 275 0 275 0 0 550 0 550 275 0
275 0 0 -550 0 -550 275 0 275 0 0 -275 0 -275 -550 0 -550 0 0 -275 0 -275
550 0 550 0 0 -275 0 -275 275 0 275 0 0 275 0 275 275 0 275 0 0 -275 0 -275
550 0 550 0 0 275 0 275 275 0 275 0 0 -275 0 -275 275 0 275 0 0 275 0 275
550 0 550 0 0 275 0 275 275 0 275 0 0 275 0 275 550 0 550 0 0 -275 0 -275
-275 0 -275 0 0 -550 0 -550 550 0 550 0 0 275 0 275 -275 0 -275 0 0 275 0
275 275 0 275 0 0 1650 0 1650 -825 0 -825 0 0 -275 0 -275 -275 0 -275 0 0
550 0 550 275 0 275 0 0 275 0 275 -275 0 -275 0 0 275 0 275 550 0 550 0 0
-550 0 -550 275 0 275 0 0 275 0 275 275 0 275 0 0 825 0 825 -275 0 -275 0 0
275 0 275 275 0 275 0 0 825 0 825 -275 0 -275 0 0 275 0 275 275 0 275 0 0
550 0 550 -275 0 -275 0 0 -275 0 -275 -550 0 -550 0 0 275 0 275 275 0 275 0
0 275 0 275 -275 0 -275 0 0 -275 0 -275 -275 0 -275 0 0 -275 0 -275 275 0
275 0 0 -275 0 -275 275 0 275 0 0 -550 0 -550 275 0 275 0 0 -275 0 -275
-275 0 -275 0 0 -825 0 -825 -275 0 -275 0 0 1375 0 1375 -275 0 -275 0 0 275
0 275 -275 0 -275 0 0 275 0 275 -275 0 -275 0 0 550 0 550 -825 0 -825 0 0
275 0 275 275 0 275 0 0 550 0 550 -275 0 -275 0 0 275 0 275 275 0 275 0 0
275 0 275 -550 0 -550 0 0 275 0 275 275 0 275 0 0 550 0 550 -825 0 -825 0 0
-275 0 -275 -275 0 -275 0 0 275 0 275 -1100 0 -1100 0 0 -275 0 -275 -550 0
-550 0 0 275 0 275 -275 0 -275 0 0 -275z m5500 -550 l0 -275 -275 0 -275 0 0
-275 0 -275 275 0 275 0 0 -275 0 -275 -550 0 -550 0 0 -275 0 -275 275 0 275
0 0 -550 0 -550 275 0 275 0 0 275 0 275 275 0 275 0 0 -275 0 -275 -275 0
-275 0 0 -550 0 -550 275 0 275 0 0 -275 0 -275 825 0 825 0 0 -275 0 -275
-1100 0 -1100 0 0 -550 0 -550 275 0 275 0 0 -275 0 -275 275 0 275 0 0 -275
0 -275 275 0 275 0 0 275 0 275 275 0 275 0 0 550 0 550 550 0 550 0 0 -1650
0 -1650 -550 0 -550 0 0 550 0 550 275 0 275 0 0 550 0 550 -275 0 -275 0 0
-275 0 -275 -275 0 -275 0 0 -275 0 -275 -275 0 -275 0 0 -275 0 -275 275 0
275 0 0 -825 0 -825 -550 0 -550 0 0 -275 0 -275 -275 0 -275 0 0 -550 0 -550
275 0 275 0 0 -550 0 -550 825 0 825 0 0 -550 0 -550 -550 0 -550 0 0 275 0
275 -1100 0 -1100 0 0 275 0 275 275 0 275 0 0 275 0 275 275 0 275 0 0 275 0
275 -275 0 -275 0 0 275 0 275 -275 0 -275 0 0 -550 0 -550 -275 0 -275 0 0
275 0 275 -275 0 -275 0 0 275 0 275 -275 0 -275 0 0 -275 0 -275 -275 0 -275
0 0 275 0 275 275 0 275 0 0 275 0 275 -275 0 -275 0 0 275 0 275 -275 0 -275
0 0 -275 0 -275 -275 0 -275 0 0 275 0 275 -275 0 -275 0 0 -275 0 -275 -550
0 -550 0 0 275 0 275 550 0 550 0 0 275 0 275 275 0 275 0 0 275 0 275 -550 0
-550 0 0 -275 0 -275 -275 0 -275 0 0 275 0 275 -550 0 -550 0 0 -275 0 -275
275 0 275 0 0 -275 0 -275 -275 0 -275 0 0 275 0 275 -275 0 -275 0 0 275 0
275 -275 0 -275 0 0 275 0 275 825 0 825 0 0 275 0 275 -275 0 -275 0 0 275 0
275 550 0 550 0 0 275 0 275 275 0 275 0 0 275 0 275 -550 0 -550 0 0 275 0
275 -275 0 -275 0 0 275 0 275 275 0 275 0 0 -275 0 -275 550 0 550 0 0 275 0
275 -275 0 -275 0 0 275 0 275 -550 0 -550 0 0 275 0 275 550 0 550 0 0 -275
0 -275 275 0 275 0 0 550 0 550 275 0 275 0 0 -550 0 -550 550 0 550 0 0 550
0 550 -275 0 -275 0 0 550 0 550 -275 0 -275 0 0 -275 0 -275 -275 0 -275 0 0
275 0 275 275 0 275 0 0 275 0 275 275 0 275 0 0 275 0 275 275 0 275 0 0 275
0 275 -275 0 -275 0 0 275 0 275 275 0 275 0 0 -275 0 -275 275 0 275 0 0 275
0 275 550 0 550 0 0 -275 0 -275 275 0 275 0 0 275 0 275 550 0 550 0 0 275 0
275 275 0 275 0 0 -275z m4950 -8800 l0 -275 -275 0 -275 0 0 275 0 275 275 0
275 0 0 -275z m-14300 -550 l0 -275 -275 0 -275 0 0 275 0 275 275 0 275 0 0
-275z m12650 -550 l0 -275 -275 0 -275 0 0 275 0 275 275 0 275 0 0 -275z
m-550 -1650 l0 -825 -825 0 -825 0 0 825 0 825 825 0 825 0 0 -825z m-7700 0
l0 -275 -275 0 -275 0 0 275 0 275 275 0 275 0 0 -275z m9350 -550 l0 -825
-275 0 -275 0 0 -275 0 -275 -275 0 -275 0 0 550 0 550 275 0 275 0 0 550 0
550 275 0 275 0 0 -825z m-9350 -2200 l0 -275 -275 0 -275 0 0 275 0 275 275
0 275 0 0 -275z m5500 0 l0 -275 -275 0 -275 0 0 275 0 275 275 0 275 0 0
-275z"/>
<path d="M9410 15745 l0 -275 275 0 275 0 0 -550 0 -550 -275 0 -275 0 0 275
0 275 -275 0 -275 0 0 -550 0 -550 550 0 550 0 0 -275 0 -275 275 0 275 0 0
825 0 825 275 0 275 0 0 -275 0 -275 275 0 275 0 0 -275 0 -275 -275 0 -275 0
0 -1100 0 -1100 -275 0 -275 0 0 -275 0 -275 550 0 550 0 0 -275 0 -275 -275
0 -275 0 0 -275 0 -275 -275 0 -275 0 0 275 0 275 -275 0 -275 0 0 275 0 275
-275 0 -275 0 0 275 0 275 -275 0 -275 0 0 275 0 275 -275 0 -275 0 0 -275 0
-275 275 0 275 0 0 -275 0 -275 -275 0 -275 0 0 -275 0 -275 -275 0 -275 0 0
-825 0 -825 275 0 275 0 0 -275 0 -275 275 0 275 0 0 550 0 550 550 0 550 0 0
-550 0 -550 -275 0 -275 0 0 -275 0 -275 275 0 275 0 0 275 0 275 275 0 275 0
0 550 0 550 275 0 275 0 0 275 0 275 275 0 275 0 0 -550 0 -550 -275 0 -275 0
0 -550 0 -550 -275 0 -275 0 0 -275 0 -275 275 0 275 0 0 275 0 275 275 0 275
0 0 -550 0 -550 -275 0 -275 0 0 -275 0 -275 275 0 275 0 0 275 0 275 275 0
275 0 0 550 0 550 275 0 275 0 0 -275 0 -275 275 0 275 0 0 275 0 275 -275 0
-275 0 0 550 0 550 -275 0 -275 0 0 275 0 275 275 0 275 0 0 275 0 275 -550 0
-550 0 0 275 0 275 275 0 275 0 0 825 0 825 275 0 275 0 0 275 0 275 -275 0
-275 0 0 -275 0 -275 -275 0 -275 0 0 550 0 550 275 0 275 0 0 550 0 550 -275
0 -275 0 0 550 0 550 -275 0 -275 0 0 275 0 275 -825 0 -825 0 0 -275z m550
-5500 l0 -275 -275 0 -275 0 0 275 0 275 275 0 275 0 0 -275z m-1100 -550 l0
-275 -275 0 -275 0 0 275 0 275 275 0 275 0 0 -275z"/>
<path d="M7210 12445 l0 -275 275 0 275 0 0 275 0 275 -275 0 -275 0 0 -275z"/>
<path d="M9410 12445 l0 -275 275 0 275 0 0 275 0 275 -275 0 -275 0 0 -275z"/>
<path d="M6660 9695 l0 -275 275 0 275 0 0 275 0 275 -275 0 -275 0 0 -275z"/>
<path d="M6660 8595 l0 -275 275 0 275 0 0 275 0 275 -275 0 -275 0 0 -275z"/>
<path d="M13260 8595 l0 -275 275 0 275 0 0 275 0 275 -275 0 -275 0 0 -275z"/>
<path d="M8310 7495 l0 -275 275 0 275 0 0 275 0 275 -275 0 -275 0 0 -275z"/>
<path d="M14360 5845 l0 -275 275 0 275 0 0 275 0 275 -275 0 -275 0 0 -275z"/>
<path d="M14360 16295 l0 -1925 1925 0 1925 0 0 1925 0 1925 -1925 0 -1925 0
0 -1925z m3300 0 l0 -1375 -1375 0 -1375 0 0 1375 0 1375 1375 0 1375 0 0
-1375z"/>
<path d="M15460 16295 l0 -825 825 0 825 0 0 825 0 825 -825 0 -825 0 0 -825z"/>
<path d="M2260 4195 l0 -1925 1925 0 1925 0 0 1925 0 1925 -1925 0 -1925 0 0
-1925z m3300 0 l0 -1375 -1375 0 -1375 0 0 1375 0 1375 1375 0 1375 0 0 -1375z"/>
<path d="M3360 4195 l0 -825 825 0 825 0 0 825 0 825 -825 0 -825 0 0 -825z"/>
</g>
</svg>
