<?xml version="1.0" encoding="utf-8"?>
<!-- Generator: Adobe Illustrator 19.0.0, SVG Export Plug-In . SVG Version: 6.00 Build 0)  -->
<svg version="1.1" id="Layer_1" xmlns="http://www.w3.org/2000/svg" xmlns:xlink="http://www.w3.org/1999/xlink" x="0px" y="0px"
	 viewBox="0 0 1549.4 1549.4" style="enable-background:new 0 0 1549.4 1549.4;" xml:space="preserve">
<g>
	<path d="M1177.7,1487.9c-41.1,0-82.3,0-123.9,0c0-20.8,0-41.2,0-61.9c-20.8,0-41.1,0-61.9,0c0-20.7,0-41.1,0-61.8
		c-20.9,0-41.3,0-62.1,0c0,61.7,0,123.3,0,185.3c-82.7,0-165.1,0-248.2,0c0-20.5,0-41.1,0-61.7c20.6,0,41.1,0,61.7,0
		c0-20.9,0-41.3,0-61.6c-20.7,0-41.1,0-61.6,0c0,20.8,0,41.3,0,61.7c-20.7-0.1-41.4-0.1-62.1-0.2l0.1,0.1c0-41.4,0-82.8,0-124.1
		l-0.1,0.1c20.5,0,40.9,0,61.7,0c0-41.4,0-82.4,0-123.9c-20.3,0-40.7,0-61.6,0c0-21.1,0-41.7,0-62.2l-0.1,0.1c41.3,0,82.5,0,124.3,0
		c0,62.3,0,124,0,185.7c41.5,0,82.4,0,123.9,0c0-41.3,0-82.4,0-123.8c21,0,41.5,0,62,0c0,20.6,0,41.1,0,61.8c20.9,0,41.3,0,61.6,0
		c0-20.7,0-41.1,0-61.6c-20.8,0-41.3,0-61.7,0c0-20.6,0-41.2,0-62.3c21.1,0,41.5,0,62.2,0c0-62.3,0-124.1,0-185.9l-0.1,0.1
		c20.6,0,41.1,0,62.1,0c0-2.5,0-4.3,0-6.1c0-36.9,0-73.9,0-110.8c0-2.5-0.2-5-0.3-7.5c20.8,0.1,41.6,0.1,62.4,0.2
		c0,41.2,0,82.5,0,123.7c20.9,0,41.3,0,62,0c0-20.6,0-40.9,0-61.7c20.7,0,41.1,0,61.5,0c0-20.9,0-41.3,0-61.9
		c-41.5,0-82.6,0-123.7,0c0-20.6,0-41.1,0-62.2c-21,0-41.4,0-61.8,0c0-20.6,0-41.1,0-61.5c-21.2,0-41.6,0-61.8,0
		c0,20.6,0,40.9,0,61.3c20.8,0,41.4,0,62,0c-0.1,2-0.2,4-0.2,6c-0.1,18.7-0.1,37.5-0.1,56.2c-41.3,0-82.6,0-123.9,0l0.1,0.1
		c0-20.6,0-41.2,0-61.7c-41.7,0-82.8,0-124.1,0c0,20.8,0,41.3,0,61.7l0.1-0.1c-20.5,0-40.9,0-61.9,0c0-20.6,0-41,0-61.9
		c-20.9,0-41.3,0-61.9,0c0-20.8,0-41,0-61.8c41,0,82,0,123.5,0c0-20.9,0-41.3,0-62.2c21.1,0,41.7,0,62.3,0l-0.1-0.1
		c0,20.6,0,41.2,0,61.7c21.1,0,41.4,0,62.1,0c0-20.8,0-41.3,0-61.7l-0.1,0.1c20.6,0,41.2,0,61.7,0c0-41.7,0-82.8,0-124.1
		c-41.5,0-82.6,0-123.7,0l0.1,0.1c0-20.5,0-40.9,0-61.9c20.6,0,40.9,0,62,0c0-21.1,0-41.7,0-62.2l-0.1,0.1c20.7,0,41.4,0,62.1,0
		l-0.1-0.1c0,20.5,0,40.9,0,61.9c41.4,0,82.4,0,123.8,0c0,41.5,0,82.6,0,124.1c-20.5,0-40.8,0-61.4,0c0,20.8,0,41,0,61.9
		c41.2,0,82.4,0,123.6,0c0,0-0.2-0.1-0.2-0.1c0.1,18.6,0.2,37.2,0.3,55.9c0,2,0,3.9,0,6.4c41.7,0,82.9,0,124.1,0l-0.1-0.1
		c0,82.6,0,165.1,0,247.7c62.4,0,124.1,0,186.1,0c0-20.8,0-41.3,0-61.7l-0.1,0.1c20.5,0,40.9,0,61.7,0c0,82.6,0,165,0,247.8
		c-20.4,0-40.6,0-61.5,0c0,20.7,0,41.1,0,61.8c-20.9,0-41.3,0-62.1,0c0-20.4,0-40.7,0-61.5c-20.8,0-41.1,0-62.1,0
		c0-41.6,0-82.6,0-123.9c-20.8,0-41.1,0-61.7,0c0,61.7,0,123.4,0,185.7c20.4,0,40.8,0,61.5,0c0,20.8,0,41.1,0,61.9
		c20.8,0,41.1,0,61.9,0c0,20.8,0,41.1,0,61.9c20.7,0,41.1,0,61.9,0c0,20.9,0,41.3,0,62.1c-20.3,0-40.6,0-61.2,0
		c0,20.8,0,41.1,0,62.1c40.9,0,82,0,123.3,0c0,20.8,0,41.1,0,61.7c-123.6,0-247.3,0-371.8,0c0-20.5,0-41.1,0-61.7
		c20.6,0,41.2,0,61.7,0c0-62.3,0-124,0-185.6c-20.7,0-41.1,0-61.6,0C1177.7,1364.3,1177.7,1426.1,1177.7,1487.9z M1053.9,1239.4
		c62.1,0,123.8,0,185.4,0c0-62.1,0-123.8,0-185.4c-62,0-123.6,0-185.4,0C1053.9,1115.9,1053.9,1177.5,1053.9,1239.4z M1302,1364
		c0,41.4,0,82.5,0,123.4c20.7,0,41.1,0,61.4,0c0-41.3,0-82.2,0-123.4C1342.9,1364,1322.6,1364,1302,1364z M1425.9,1115.4
		c20.8,0,41.1,0,61.4,0c0-20.7,0-41.1,0-61.4c-20.7,0-40.9,0-61.4,0C1425.9,1074.6,1425.9,1094.8,1425.9,1115.4z M1053.9,1363.4
		c20.8,0,41.1,0,61.4,0c0-20.7,0-41.1,0-61.4c-20.7,0-40.9,0-61.4,0C1053.9,1322.6,1053.9,1342.8,1053.9,1363.4z"/>
	<path d="M0,0c144.6,0,288.8,0,433.4,0c0,144.5,0,288.7,0,433.4c-144.3,0-288.6,0-433.4,0C0,289.2,0,144.8,0,0z M62,62
		c0,103.5,0,206.5,0,309.4c103.4,0,206.4,0,309.4,0c0-103.3,0-206.2,0-309.4C268.2,62,165.3,62,62,62z"/>
	<path d="M1549.3,433.6c-144.6,0-288.9,0-433.4,0c0-144.5,0-288.7,0-433.4c144.3,0,288.6,0,433.4,0
		C1549.3,144.4,1549.3,288.8,1549.3,433.6z M1487.3,371.6c0-103.4,0-206.5,0-309.4c-103.4,0-206.4,0-309.4,0
		c0,103.3,0,206.2,0,309.4C1281.1,371.6,1384,371.6,1487.3,371.6z"/>
	<path d="M-0.1,1549.4c0-144.6,0-288.9,0-433.4c144.5,0,288.7,0,433.4,0c0,144.3,0,288.7,0,433.4
		C289,1549.4,144.6,1549.4-0.1,1549.4z M371.4,1178.1c-103.5,0-206.5,0-309.4,0c0,103.4,0,206.4,0,309.4c103.3,0,206.2,0,309.4,0
		C371.4,1384.3,371.4,1281.4,371.4,1178.1z"/>
	<path d="M867.7,619.7c-41.1,0-82.2,0-123.9,0c0,20.7,0,41.1,0,61.9c-62.2,0-123.9,0-186.3,0c0,21.1,0,41.6,0,62.2l0.1-0.1
		c-20.7,0-41.4,0-62.1,0l0.1,0.1c0-20.5,0-40.9,0-62c-41.5,0-82.5,0-123.8,0c0-20.8,0-41.1,0-61.9c41,0,82.1,0,123.7,0
		c0-41.6,0-82.7,0-124.1c41.5,0,82.4,0,123.9,0c0-41.4,0-82.5,0-123.8c20.8,0,41.1,0,61.9,0c0,40.9,0,82,0,123.8
		c21.1,0,41.7,0,62.3,0l-0.1-0.1c0,20.5,0,40.9,0,62.1c41.7,0,82.9,0,124.2,0l-0.1-0.1c0,20.7,0,41.4,0,62.1L867.7,619.7z
		 M681.3,619.6c0-20.8,0-41.1,0-61.4c-41.4,0-82.4,0-123.4,0c0,20.7,0,40.9,0,61.4C599.1,619.6,640,619.6,681.3,619.6z"/>
	<path d="M743.7,185.9c-20.7-0.1-41.4-0.1-62.1-0.2l0.1,0.1c0-20.6,0-41.2,0-62.1c-41.9,0-83,0-124.1,0l0.1,0.1
		c0-20.7,0-41.4,0-62.1l-0.1,0.1c41.1,0,82.3,0,123.9,0c0-20.8,0-41.1,0-61.8c20.8,0,41.1,0,61.9,0c0,20.3,0,40.7,0,61.4
		c20.9,0,41.3,0,62,0c0-20.3,0-40.6,0-61.2c20.7,0,41.1,0,62,0c0,40.9,0,81.9,0,123.5c62.2,0,123.9,0,185.9,0c0,20.8,0,41,0,61.8
		c-41,0-82,0-123.8,0c0,21.1,0,41.7,0,62.3l0.1-0.1c-41.1,0-82.2,0-123.8,0c0,20.7,0,41.1,0,61.8c-20.9,0-41.3,0-62.3,0
		c0-41.3,0-82.5,0-123.7c20.6,0,41.1,0,61.8,0c0-20.9,0-41.3,0-61.6c-20.7,0-41.1,0-61.6,0C743.7,145,743.7,165.4,743.7,185.9z"/>
	<path d="M495.6,743.7c0,20.5,0,40.9,0,61.8c-41.2,0-82.2,0-123.8,0c0,21,0,41.6,0,62.1c0,0,0.1-0.2,0.1-0.2c-20.5,0-40.9,0-62,0
		c0-20.2,0-40.6,0-61.4c-20.9,0-41.3,0-62.2,0c0,61.7,0,123.4,0,185.4c-20.8,0-41,0-61.8,0c0,20.7,0,41.1,0,61.8
		c-20.9,0-41.3,0-62.2,0c0-41.2,0-82.5,0-123.7l-0.1,0.1c20.6,0,41.2,0,61.7,0c0-21.1,0-41.4,0-62.1c-20.8,0-41.3,0-61.7,0l0.1,0.1
		c-0.1-20.6-0.1-41.3-0.2-61.9c0,0-0.1,0.2-0.1,0.2c17.6-0.1,35.3-0.2,52.9-0.3c2.8,0,5.7,0,9,0c0-41.2,0-82.2,0-123.6
		c20.9,0,41.3,0,62.2,0c0,20.3,0,40.7,0,61.7c83.1,0,165.6,0,248.2,0C495.7,743.8,495.6,743.7,495.6,743.7z"/>
	<path d="M557.7,991.9c0-20.5,0-40.9,0-61.9c20.6,0,41,0,61.7,0c0-20.8,0-41.1,0-61.7c20.7,0,41.1,0,62,0c0,40.9,0,81.9,0,123.7
		c62.4,0,124.3,0,186.2,0l-0.1-0.1c0,41.2,0,82.5,0,123.8c-62.2,0-123.9,0-186.1,0c0-20.7,0-41,0-61.8c-21,0-41.5,0-61.9,0l0.1,0.1
		c0-20.6,0-41.2,0-62.1c-21.2,0-41.7,0-62.1,0L557.7,991.9z"/>
	<path d="M247.7,557.7c-41.1,0-82.2,0-124.1,0c0,2.2,0,4.2,0,6.1c0,78.8,0,157.5,0,236.3c0,2-0.1,4-0.2,6c0,0,0.1-0.2,0.1-0.2
		c-39.2,0-78.3-0.1-117.5-0.1c-2,0-3.9,0-6.2,0c0-20.7,0-40.9,0-61.7c20.3,0,40.6,0,61.4,0c0-41.6,0-82.6,0-124.2
		c-20.4,0-40.8,0-61.4,0c0-41.5,0-82.4,0-123.7c82.4,0,164.7,0,247.7,0c0,20.5,0,41.1,0,61.7L247.7,557.7z"/>
	<path d="M619.6,1487.7c0,20.5,0,40.9,0,61.7c-41.3,0-82.3,0-123.7,0c0-82.4,0-164.6,0-247.3c41,0,82,0,123.7,0
		c0,20.5,0,41.1,0,61.7l0.1-0.1c-20.6,0-41.2,0-61.7,0c0,41.7,0,82.8,0,124.1c20.8,0,41.3,0,61.7,0L619.6,1487.7z"/>
	<path d="M1301.7,743.9c0-20.5,0-40.9,0-61.7c41.3,0,82.3,0,123.9,0c0,20.4,0,40.8,0,61.5c41.5,0,82.4,0,123.7,0
		c0,41.4,0,82.4,0,124c-20.5,0-41.1,0-61.7,0l0.1,0.1c0-20.6,0-41.1,0-62.2c-41.7,0-82.7,0-124.3,0c0-20.9,0-41.2,0-61.9
		c-21,0-41.4,0-61.9,0L1301.7,743.9z"/>
	<path d="M619.7,1177.7c-20.5,0-40.9,0-62,0c0-20.6,0-41,0-61.8c-20.8,0-41.1,0-61.7,0c0-41.4,0-82.5,0-124.1c20.5,0,41.1,0,61.7,0
		l-0.1-0.1c0,20.6,0,41.2,0,62.1c21.2,0,41.7,0,62.1,0l-0.1-0.1c0,41.4,0,82.8,0,124.1L619.7,1177.7z"/>
	<path d="M867.7,991.9c0-20.5,0-40.9,0-61.9c-20.7,0-41.1,0-62,0c0-21.1,0-41.7,0-62.3l-0.1,0.1c41.4,0,82.8,0,124.1,0l-0.1-0.1
		c0,20.6,0,41.2,0,62.2c21.1,0,41.4,0,62,0c0,21,0,41.4,0,61.9l0.1-0.1c-41.4,0-82.8,0-124.1,0L867.7,991.9z"/>
	<path d="M619.6,247.7c0,20.5,0,40.9,0,61.7c-41.2,0-82.3,0-123.6,0c0-61.7,0-123.3,0-185.6c20.6,0,41.2,0,61.8,0
		c0,0-0.1-0.1-0.1-0.1c0,41.3,0,82.5,0,124.1c21.2,0,41.7,0,62.1,0L619.6,247.7z"/>
	<path d="M371.6,929.7c0,20.5,0,40.9,0,61.9c20.8,0,41.1,0,61.8,0c0,20.8,0,41.1,0,61.7c-40.9,0-81.9,0-123.4,0
		c0-40.9,0-81.9,0-123.5c20.5,0,41.1,0,61.7,0L371.6,929.7z"/>
	<path d="M1425.7,557.7c-62,0-124.1,0-186.1,0l0.1,0.1c0-20.5,0-40.9,0-61.7c61.9,0,123.6,0,185.8,0c0,20.6,0,41.1,0,61.7
		L1425.7,557.7z"/>
	<path d="M1487.6,867.7c0,20.7,0,41.4,0,62.2l0.1-0.1c-41.2,0-82.5,0-123.7,0c0-20.9,0-41.3,0-61.9c41.5,0,82.6,0,123.7,0
		L1487.6,867.7z"/>
	<path d="M743.7,495.9c0-41.1,0-82.2,0-123.7c20.5,0,40.9,0,61.6,0c0,41,0,82,0,123.6c-20.6,0-41.2,0-61.7,0
		C743.6,495.7,743.7,495.9,743.7,495.9z"/>
	<path d="M929.6,247.8c41.1,0,82.2,0,123.7,0c0,20.5,0,40.9,0,61.6c-41,0-82,0-123.6,0c0-20.6,0-41.2,0-61.8
		C929.7,247.7,929.6,247.8,929.6,247.8z"/>
	<path d="M1239.6,557.7c0,41.1,0,82.2,0,123.9c-20.8,0-41.5,0-62.2,0c0,0,0.2,0.1,0.2,0.1c0-39.1,0.1-78.3,0.1-117.4
		c0-2,0-3.9,0-6.5c20.9,0,41.5,0,62.1,0C1239.7,557.8,1239.6,557.7,1239.6,557.7z"/>
	<path d="M61.7,929.8c0-20.5,0-40.9,0-62c20.8,0,41.4,0,62,0l-0.1-0.1c0,20.7,0,41.4,0,62.1l0.1-0.1c-20.7,0-41.4,0-62.1,0
		L61.7,929.8z"/>
	<path d="M371.7,929.9c0.1-20.8,0.1-41.6,0.2-62.4c0,0-0.1,0.2-0.1,0.2c20.4,0,40.9,0,61.6,0c0,20.8,0,41.2,0,62.1
		c-20.6,0-41.2,0-61.8,0C371.6,929.7,371.7,929.9,371.7,929.9z"/>
	<path d="M557.6,743.8c20.5,0,40.9,0,61.7,0c0,20.5,0,40.9,0,61.6c-20.3,0-40.7,0-61.6,0c0-20.6,0-41.2,0-61.7
		C557.7,743.7,557.6,743.8,557.6,743.8z"/>
	<path d="M557.7,61.7c-20.5,0-40.9,0-61.7,0c0-20.5,0-40.9,0-61.6c20.3,0,40.7,0,61.6,0c0,20.6,0,41.2,0,61.7
		C557.6,61.9,557.7,61.7,557.7,61.7z"/>
	<path d="M61.6,929.7c0,20.5,0,40.9,0,61.7c-20.5,0-40.9,0-61.6,0c0-20.3,0-40.7,0-61.6c20.6,0,41.2,0,61.8,0
		C61.7,929.8,61.6,929.7,61.6,929.7z"/>
	<path d="M991.9,61.4c0-20.6,0-40.9,0-61.4c20.5,0,40.7,0,61.4,0c0,20.3,0,40.6,0,61.4C1033,61.4,1012.6,61.4,991.9,61.4z"/>
	<path d="M867.7,681.9c0-20.7,0-41.4,0-62.2l-0.1,0.1c20.6,0,41.2,0,62,0c0,21.1,0,41.5,0,62l0.1-0.1c-20.7,0-41.4,0-62.1,0
		L867.7,681.9z"/>
	<path d="M1425.6,557.8c20.7,0,41.4,0,62.1,0c0,0-0.1-0.1-0.1-0.1c0,20.5,0,40.9,0,61.7c-20.6,0-40.9,0-61.9,0c0-20.6,0-41.2,0-61.7
		C1425.7,557.7,1425.6,557.8,1425.6,557.8z"/>
	<path d="M681.6,185.7c0,20.5,0,40.9,0,62c-20.8,0-41.4,0-62,0c0,0,0.1,0.1,0.1,0.1c0-20.6,0-41.2,0-62c21.1,0,41.5,0,62,0
		L681.6,185.7z"/>
	<path d="M247.6,557.8c20.5,0,40.9,0,61.7,0c0,20.5,0,40.9,0,61.6c-20.3,0-40.7,0-61.6,0c0-20.6,0-41.2,0-61.7
		C247.7,557.7,247.6,557.8,247.6,557.8z"/>
	<path d="M1487.7,557.9c0-20.5,0-40.9,0-61.7c20.5,0,40.9,0,61.6,0c0,20.3,0,40.7,0,61.6c-20.6,0-41.2,0-61.7,0
		C1487.6,557.7,1487.7,557.9,1487.7,557.9z"/>
	<path d="M495.9,433.4c0-20.6,0-40.9,0-61.4c20.5,0,40.7,0,61.4,0c0,20.3,0,40.7,0,61.4C537,433.4,516.6,433.4,495.9,433.4z"/>
	<path d="M929.7,433.7c-20.5,0-40.9,0-61.7,0c0-20.5,0-40.9,0-61.6c20.3,0,40.7,0,61.6,0c0,20.6,0,41.2,0,61.8
		C929.6,433.9,929.7,433.7,929.7,433.7z"/>
	<path d="M991.7,433.9c0-20.5,0-40.9,0-61.7c20.5,0,40.9,0,61.6,0c0,20.3,0,40.7,0,61.6c-20.6,0-41.2,0-61.7,0
		C991.6,433.7,991.7,433.9,991.7,433.9z"/>
	<path d="M433.4,496.1c0,20.6,0,40.8,0,61.4c-20.5,0-40.7,0-61.4,0c0-20.3,0-40.6,0-61.4C392.3,496.1,412.6,496.1,433.4,496.1z"/>
	<path d="M1116,1116c20.6,0,40.9,0,61.4,0c0,20.5,0,40.7,0,61.4c-20.3,0-40.7,0-61.4,0C1116,1157.1,1116,1136.8,1116,1116z"/>
	<path d="M309.4,124.1c0,61.9,0,123.5,0,185.4c-61.8,0-123.4,0-185.4,0c0-61.6,0-123.3,0-185.4C185.6,124.1,247.3,124.1,309.4,124.1
		z"/>
	<path d="M1425.3,309.6c-61.9,0-123.5,0-185.4,0c0-61.8,0-123.4,0-185.4c61.6,0,123.3,0,185.4,0
		C1425.3,185.8,1425.3,247.5,1425.3,309.6z"/>
	<path d="M123.9,1425.4c0-61.9,0-123.5,0-185.4c61.8,0,123.4,0,185.4,0c0,61.6,0,123.3,0,185.4
		C247.7,1425.4,186,1425.4,123.9,1425.4z"/>
</g>
</svg>
