<?xml version="1.0" encoding="utf-8"?>
<!-- Generator: Adobe Illustrator 19.0.0, SVG Export Plug-In . SVG Version: 6.00 Build 0)  -->
<svg version="1.1" id="Layer_1" xmlns="http://www.w3.org/2000/svg" xmlns:xlink="http://www.w3.org/1999/xlink" x="0px" y="0px"
	 viewBox="0 0 249.6 269.6" style="enable-background:new 0 0 249.6 269.6;" xml:space="preserve">
<g>
	<path d="M191.6,130c-0.3-2.9-1.4-5.8-0.4-7.2c1.1-1.6,4.1-2.4,6.3-2.6c3.9-0.4,7.9-0.1,12.2-0.1c0-12.6,0-24.7,0-37.7
		c-4.9,2.8-10.4,3.7-11.6,10.4c-0.8,4.4-2.3,8.7-3.5,13c-0.9,2.9-2.5,4.2-6,3.4c-14.3-3.6-14.4-3.5-10.4-17.7
		c7.1-25.3,14.4-50.6,21.5-75.9c1.2-4.4,2.9-6,7.8-4.6c15.4,4.4,13,2.8,9.3,16.3c-0.2,0.8-0.4,1.6-0.7,2.4c-3.2,8.1-4,15.7,1.3,23.6
		c2,2.9,2.2,7.3,2.2,11.1c0.2,21.7,0.1,43.3,0.1,65.8c7.1,0,14.1,0,21,0c7.4,0,9,1.7,9,9.1c0,40.5,0,81,0,121.5
		c0,7.2-1.7,8.9-8.7,8.9c-17.2,0-34.3,0-51.5,0c-7.8,0-9.4-1.6-9.4-9.3c0-34.5,0-69,0-103.5c0-2.1,0-4.3,0-7.2c-2.1,0-3.8,0-5.6,0
		c-18.5,0-37,0-55.5,0c-7.1,0-8.9-1.8-8.9-8.7c0-9.9,0.9-10.9,10.8-10.9c22,0,44,0,66,0C188.6,130,190.4,130,191.6,130z"/>
	<path d="M110,189.6c-2.6,0-4.6,0-6.5,0c-17.3,0-34.7,0-52,0c-13,0-21.4-8.3-21.4-21.2c0-25.7,0-51.3,0-77c0-13,8.3-20.7,21.2-21.6
		c13.9-0.9,26.6,1.9,37.5,10.5c10.4,8.1,21.9,11.3,34.9,9.7c3.6-0.4,7.3-0.2,11,0c8.3,0.3,14.8,6.7,14.9,14.6
		c0.1,7.9-6.3,14.7-14.5,14.9c-11.5,0.3-23,0.3-34.5-0.1c-3-0.1-6.1-1.6-8.8-3c-3.8-2-7.3-4.5-11.7-7.1c0,17.2,0,33.7,0,50.8
		c7.1,0,14.2,0,21.3,0c5.5,0,11,0,16.5,0c13.3,0.1,21.6,8.3,21.7,21.5c0.1,20.7,0,41.3,0,62c0,2,0,3.9,0,6.6c3.6,0,6.7-0.1,9.8,0
		c5.8,0.2,10.1,4.4,10.2,9.6c0.1,5.2-4.2,9.7-9.9,9.9c-9.8,0.2-19.7,0.2-29.5,0c-6.4-0.1-10.1-4.4-10.1-11.2
		c-0.1-20.2,0-40.3,0-60.5C110,195.3,110,192.8,110,189.6z"/>
	<path d="M19.6,200c3.4,0,6.2,0,9,0c19.3,0,38.7,0,58,0c8.2,0,13,3.7,13,9.9c-0.1,6.2-4.8,9.7-13.1,9.7c-8.7,0-17.3,0-26.4,0
		c0,10.1,0,20,0,30.4c2.8,0,5.6,0,8.4,0c6.4,0.1,10.7,3.8,11.1,9.2c0.3,4.5-3.3,9.1-8,10.2c-4.7,1.1-9.1-1.9-11.3-7.6
		c-0.2-0.6-0.5-1.2-0.7-2c-6.5,0-13,0-19.5,0c-1.4,5.6-4.3,9.7-10.5,9.7c-4.8,0-9.2-4.4-9.5-9.3c-0.3-5,3.8-9.7,9.1-10.1
		c3.4-0.3,6.9-0.1,10.6-0.1c0-10.3,0-20.1,0-30.5c-9.1,0-18.1,0-27,0c-9.2,0-12.7-3.5-12.7-12.6c0-38.3,0-76.7,0-115
		c0-7.2,4.1-12,9.9-11.9c5.7,0.1,9.6,4.7,9.6,11.7c0,34.2,0,68.3,0,102.5C19.6,195.9,19.6,197.5,19.6,200z"/>
	<path d="M89.6,29.5c0.1,16.2-13.5,30-29.8,30c-16,0-29.7-13.5-29.8-29.5C29.9,13.8,43.5,0,59.8,0C75.8,0,89.4,13.4,89.6,29.5z"/>
</g>
</svg>
